PathFileType	4	(X/Y/Z)
DataRate	CameraRate	NumFrames	NumMarkers	Units	OrigDataRate	OrigDataStartFrame	OrigNumFrames																																																																																																			
200	200	11	38	mm	200	76	200																																																																																																			
Frame#	Time	C7			Sternum			r_AMC1			r_AMC2			r_AMC3			l_AMC1			l_AMC2			l_AMC3			PX			T8			r_humerous			r_elbow_medial			r_elbow_lateral			r_forearm			r_wrist_radius			r_wrist_ulna			r_MCP_1			r_MCP_3			l_humerous			l_elbow_medial			l_elbow_lateral			l_forearm			l_wrist_radius			l_wrist_ulna			l_MCP_1			l_MCP_3			r_ASIS			r_PSIS			l_ASIS			l_PSIS			r_IC			l_IC			ts_r			ai_r			aa_r			ts_l			ai_l			aa_l		
		X1	Y1	Z1	X2	Y2	Z2	X3	Y3	Z3	X4	Y4	Z4	X5	Y5	Z5	X6	Y6	Z6	X7	Y7	Z7	X8	Y8	Z8	X9	Y9	Z9	X10	Y10	Z10	X11	Y11	Z11	X12	Y12	Z12	X13	Y13	Z13	X14	Y14	Z14	X15	Y15	Z15	X16	Y16	Z16	X17	Y17	Z17	X18	Y18	Z18	X19	Y19	Z19	X20	Y20	Z20	X21	Y21	Z21	X22	Y22	Z22	X23	Y23	Z23	X24	Y24	Z24	X25	Y25	Z25	X26	Y26	Z26	X27	Y27	Z27	X28	Y28	Z28	X29	Y29	Z29	X30	Y30	Z30	X31	Y31	Z31	X32	Y32	Z32	X33	Y33	Z33	X34	Y34	Z34	X35	Y35	Z35	X36	Y36	Z36	X37	Y37	Z37	X38	Y38	Z38
																																																																																																										
76	0.375	201.903	1376.9469	-209.3365	327.9506	1301.0623	-198.278	200.1168	1322.2201	-42.6978	236.9262	1318.0409	-9.5152	260.3135	1350.3159	-30.4575	227.7061	1327.2483	-374.2541	268.8775	1317.9513	-404.4957	292.3399	1351.3012	-370.7998	379.276	1110.9397	-193.147	148.3841	1193.6979	-220.8664	295.0524	1125.031	-6.8179	209.8539	991.9609	-25.3424	236.8965	997.9341	33.8703	282.9741	839.2772	42.2919	327.264	777.0192	18.4698	279.6916	770.3141	37.421	339.2244	677.4838	31.6198	297.6051	690.1154	43.0552	321.1724	1115.8376	-389.1565	220.7724	999.764	-406.7695	259.7744	993.5234	-446.7001	309.2279	841.2992	-440.546	338.6039	770.4159	-407.7469	301.7961	766.3295	-434.8833	352.8205	693.3472	-417.3346	309.7271	691.3513	-440.8541	362.9125	907.3705	-66.9739	175.2202	922.5308	-158.4483	372.4009	895.1998	-329.5088	179.6549	916.8864	-262.1202	274.8389	966.7412	-41.7316	282.7129	940.8071	-368.2967	159.6479	1298.987	-125.0112	150.8109	1198.2298	-117.4918	236.3599	1294.8917	-1.6764	175.3864	1307.3101	-293.9703	159.0259	1207.7656	-285.8182	254.7538	1290.1052	-405.7923
77	0.38	201.9289	1376.9431	-209.3305	327.9753	1301.0709	-198.2459	200.1653	1322.199	-42.6766	236.9558	1317.9884	-9.4394	260.3456	1350.2644	-30.42	227.7563	1327.2617	-374.2286	268.9026	1317.9883	-404.4245	292.5971	1351.2452	-371.2124	379.3368	1110.9663	-193.1613	148.1762	1193.6196	-220.6459	295.0916	1124.9976	-6.7519	209.8874	991.9511	-25.3382	236.8059	997.997	34.043	283.0309	839.3881	42.4097	327.3035	777.0178	18.4737	279.7602	770.2656	37.5026	339.1596	677.3697	31.5201	297.6783	690.1154	43.0885	321.153	1115.9556	-389.1301	220.7747	999.6915	-406.7183	259.9873	993.7301	-446.6805	309.2669	841.3317	-440.5141	338.6798	770.3463	-407.712	301.8909	766.3229	-434.8887	352.8477	693.3084	-417.3195	309.7068	691.4603	-440.8263	362.8648	907.3501	-66.9602	175.2515	922.5455	-158.4239	372.4291	895.1763	-329.4926	179.6901	916.8843	-262.0911	274.8826	966.7228	-41.7633	282.8477	940.7405	-368.3407	159.651	1298.9815	-125.0348	150.8062	1198.225	-117.4853	236.4195	1294.8067	-1.6515	175.27	1307.2185	-293.8411	158.8981	1207.6792	-285.6247	254.5223	1289.965	-405.7438
78	0.385	201.9609	1376.9465	-209.2992	328.0302	1301.0311	-198.2289	200.184	1322.1893	-42.6478	236.9866	1318.0131	-9.4193	260.3951	1350.2781	-30.3589	227.7998	1327.252	-374.2274	268.9927	1317.9917	-404.4363	292.8108	1351.0754	-371.2037	379.444	1110.9481	-193.1137	148.4314	1193.6807	-220.8205	295.1584	1124.9197	-6.7392	209.889	991.9215	-25.3178	236.9303	997.9274	33.9291	283.044	839.2922	42.3728	327.357	776.9825	18.4913	279.6945	770.403	37.4921	339.303	677.446	31.6365	297.716	690.0901	43.1093	321.227	1115.8901	-389.1202	220.8463	999.7724	-406.7074	259.8456	993.5403	-446.6675	309.3297	841.2772	-440.4829	338.7523	770.2772	-407.6771	301.9351	766.292	-434.8596	353.1751	693.4599	-417.3012	309.7419	691.3823	-440.8046	362.9132	907.3621	-66.9468	175.2748	922.5369	-158.4158	372.4568	895.1913	-329.4743	179.7337	916.8973	-262.0669	274.9709	966.6401	-41.7114	282.7761	940.7603	-368.2885	159.7057	1299.049	-124.9994	150.8094	1198.0012	-117.7985	236.4674	1294.8895	-1.6342	175.4307	1307.2924	-293.9304	159.0959	1207.7392	-285.7443	254.8318	1290.0392	-405.7596
79	0.39	201.9669	1376.9445	-209.2801	328.0182	1301.056	-198.1675	200.2058	1322.1703	-42.6278	237.0542	1317.9523	-9.4407	260.4093	1350.2662	-30.3194	227.8289	1327.2634	-374.2006	268.9908	1318.0075	-404.3749	292.682	1351.2357	-371.1498	379.4549	1110.9631	-193.1147	148.4541	1193.6907	-220.8136	295.1646	1124.9701	-6.7123	209.9326	991.9424	-25.3205	236.9873	997.9041	33.9052	283.0658	839.2465	42.347	327.3451	777.0463	18.5149	279.7533	770.3441	37.5343	339.2239	677.343	31.5285	297.7423	690.0495	43.1019	321.3233	1115.8121	-389.1081	220.9342	999.7576	-406.6789	259.9006	993.542	-446.6422	309.3836	841.2558	-440.4651	338.7573	770.3506	-407.696	301.9633	766.3032	-434.8695	353.1915	693.4433	-417.2816	309.8705	691.3002	-440.7645	362.9588	907.3541	-66.9326	175.2853	922.533	-158.4013	372.419	895.1453	-329.4267	179.7534	916.9142	-262.0407	274.9543	966.6375	-41.7394	282.8256	940.7469	-368.2925	159.9642	1298.6846	-125.0269	150.8474	1197.8303	-117.6269	236.4994	1294.6829	-1.4963	175.4767	1307.2769	-293.9616	159.1229	1207.734	-285.8476	254.8218	1290.1251	-405.9532
80	0.395	202.0116	1376.9403	-209.2594	328.0458	1301.0487	-198.1704	200.2323	1322.1569	-42.6058	237.0465	1317.9302	-9.3926	260.3823	1350.3513	-30.3059	227.8599	1327.2588	-374.1855	268.9359	1318.0883	-404.2855	292.7386	1351.1963	-371.1033	379.5128	1110.9772	-193.1086	148.474	1193.6956	-220.7862	295.1578	1125.041	-6.7055	209.9419	991.9008	-25.2504	236.998	997.8876	33.9343	283.0879	839.231	42.3894	327.3528	777.0184	18.5567	279.8383	770.2972	37.5135	339.3661	677.4255	31.64	297.7949	690.0482	43.1043	321.3111	1115.8585	-389.0938	220.8413	999.3835	-406.6646	259.9956	993.6239	-446.6516	309.4059	841.2653	-440.4892	338.7931	770.2965	-407.6545	302.0455	766.2563	-434.8491	353.2411	693.4442	-417.2927	309.8307	691.3903	-440.7615	362.9579	907.3368	-66.9194	175.3387	922.5453	-158.372	372.4885	895.15	-329.439	179.764	916.9116	-262.0331	275.018	966.6542	-41.7093	282.9072	940.7368	-368.2797	159.7777	1298.9515	-124.9435	150.9252	1198.2077	-117.4906	236.5082	1294.8006	-1.5712	175.4918	1307.2715	-293.8988	159.1426	1207.7262	-285.7232	254.87	1290.045	-405.7321
81	0.4	202.0285	1376.9393	-209.2406	328.0794	1301.0779	-198.1283	200.2654	1322.1549	-42.5798	237.0867	1317.9221	-9.4093	260.4055	1350.3267	-30.2959	227.8985	1327.2767	-374.1526	269.0768	1318.0094	-404.281	292.8484	1351.1267	-371.0991	379.5708	1110.9772	-193.0492	148.5326	1193.6896	-220.7975	295.1975	1124.9978	-6.6804	209.9702	991.9052	-25.254	237.0267	997.9023	33.971	283.0874	839.2684	42.4461	327.3841	777.0109	18.5726	279.9215	770.2672	37.5024	339.4148	677.4127	31.6408	297.7848	690.086	43.1022	321.3717	1115.8395	-389.0552	220.9877	999.7902	-406.6487	259.9457	993.5397	-446.6188	309.4446	841.3412	-440.478	338.794	770.3176	-407.6111	302.0586	766.3302	-434.8603	352.9442	693.3276	-417.2314	309.9666	691.4123	-440.7804	363.0341	907.3213	-66.921	175.3853	922.5511	-158.3291	372.5158	895.1381	-329.4143	179.808	916.9033	-262.0185	275.0374	966.6348	-41.7163	282.8229	940.8027	-368.23	159.785	1299.0401	-124.9302	150.8773	1198.0013	-117.7736	236.5349	1294.8458	-1.5776	175.5968	1307.363	-293.8402	159.3162	1207.8155	-285.7744	255.0672	1290.1402	-405.7089
82	0.405	202.0493	1376.9371	-209.2227	328.0971	1301.0797	-198.1216	200.283	1322.1337	-42.563	237.0704	1317.9778	-9.3543	260.5114	1350.2233	-30.2668	227.9342	1327.2716	-374.1465	269.1523	1317.9634	-404.3225	292.5438	1351.3112	-370.6307	379.6254	1110.9811	-193.0508	148.5547	1193.6736	-220.7519	295.2663	1124.9221	-6.6869	209.9969	991.9008	-25.2283	237.0516	997.9044	33.9707	283.1853	839.2264	42.4005	327.4485	776.9386	18.568	279.9142	770.2712	37.5473	339.4397	677.4157	31.6697	297.8353	690.066	43.1474	321.3983	1115.8564	-389.0825	221.0601	999.799	-406.624	260.009	993.572	-446.6174	309.4966	841.2694	-440.4229	338.8923	770.2942	-407.6668	302.1166	766.3592	-434.8904	353.0161	693.3303	-417.2395	310.0001	691.3605	-440.7308	363.0331	907.3078	-66.8928	175.3922	922.5477	-158.3354	372.5636	895.1324	-329.38	179.8479	916.9425	-261.9721	275.0795	966.5939	-41.6632	282.8054	940.8407	-368.2491	159.8416	1299.0227	-124.9084	150.9428	1198.0412	-117.7232	236.5287	1294.8564	-1.5053	175.6349	1307.3842	-293.82	159.3375	1207.8302	-285.704	255.1135	1290.1589	-405.6989
83	0.41	202.0701	1376.953	-209.2012	328.1352	1301.0701	-198.0848	200.3134	1322.1344	-42.5305	237.1008	1318.0073	-9.3337	260.4935	1350.2551	-30.2296	227.9993	1327.2606	-374.1164	269.1991	1317.993	-404.2919	292.6771	1350.864	-372.0572	379.684	1111.0231	-193.0051	148.5708	1193.6825	-220.7226	295.2586	1124.9291	-6.6296	210.0355	991.8937	-25.2182	236.2698	998.0466	34.5157	283.1439	839.246	42.4932	327.4689	776.9431	18.5774	279.9509	770.2462	37.5904	339.4494	677.3909	31.6716	297.8627	690.0294	43.1511	321.4278	1115.8605	-389.0283	221.0872	999.741	-406.5911	260.2187	993.763	-446.5963	309.5114	841.2924	-440.3968	338.836	770.4209	-407.6658	302.1372	766.3063	-434.8039	353.3738	693.3611	-417.1731	310.0565	691.3293	-440.7258	363.1143	907.302	-66.8686	175.4418	922.5436	-158.3019	372.5706	895.1016	-329.3604	179.8775	916.9268	-261.9648	275.0765	966.6439	-41.617	282.9216	940.8424	-368.1981	159.8366	1299.0218	-124.9103	150.9258	1198.0126	-117.6796	236.5432	1294.8236	-1.5319	175.6767	1307.3668	-293.7787	159.3244	1207.8205	-285.651	255.0962	1290.1124	-405.6561
84	0.415	202.1119	1376.9346	-209.1751	328.1837	1301.0811	-198.0758	200.3541	1322.1408	-42.5148	237.126	1317.9752	-9.3064	260.5163	1350.2513	-30.1953	228.0185	1327.2678	-374.0951	269.2118	1318.0051	-404.2804	292.7363	1350.86	-372.0495	379.7754	1111.0614	-193.0121	148.6118	1193.6824	-220.7312	295.3235	1124.9193	-6.6236	210.0856	991.9019	-25.1858	236.2937	998.0413	34.5339	283.1706	839.2867	42.5093	327.494	776.9566	18.611	280.0216	770.198	37.5843	339.5172	677.3824	31.6549	297.9285	690.0659	43.166	321.4778	1115.9026	-389.0301	221.1655	999.8057	-406.5597	260.0755	993.5728	-446.5817	309.551	841.2481	-440.3603	338.9111	770.3761	-407.6388	302.1565	766.2978	-434.7723	353.3817	693.433	-417.1897	309.9843	691.4981	-440.6929	363.1364	907.3323	-66.872	175.4584	922.543	-158.2956	372.5997	895.1013	-329.3558	179.8876	916.9226	-261.9656	275.0905	966.7239	-41.6397	282.9995	940.7314	-368.1798	159.8638	1298.9522	-124.9221	151.0353	1198.2364	-117.4477	236.5819	1294.822	-1.5257	175.5646	1307.3269	-293.7799	159.2734	1207.7462	-285.6632	254.9757	1290.0592	-405.6913
85	0.42	202.1263	1376.9509	-209.1573	328.1926	1301.0803	-198.0551	200.3729	1322.1573	-42.4804	237.1856	1317.9547	-9.3291	260.5721	1350.2189	-30.1716	228.1159	1327.2076	-374.0522	269.2608	1318.0177	-404.2482	292.7317	1350.8457	-372.0485	379.8093	1111.0344	-192.9545	148.6449	1193.6728	-220.7008	295.3473	1124.9221	-6.6224	210.1324	991.8884	-25.1633	236.3315	998.0408	34.554	283.2136	839.2922	42.5257	327.5299	776.92	18.6175	279.9937	770.2846	37.6037	339.5246	677.3616	31.6642	297.9578	690.0584	43.1916	321.4707	1115.9668	-388.9921	221.2006	999.7325	-406.5247	260.2714	993.7419	-446.5667	309.6039	841.319	-440.373	338.976	770.3357	-407.6291	302.2167	766.3488	-434.773	353.4807	693.3442	-417.1383	310.0213	691.5136	-440.7147	363.1487	907.282	-66.8632	175.5022	922.566	-158.2666	372.6585	895.084	-329.3467	179.9403	916.9253	-261.9261	275.1533	966.7148	-41.5967	282.9735	940.777	-368.1631	159.9122	1299.0246	-124.9062	151.0167	1198.0185	-117.6918	236.5901	1294.8659	-1.491	175.7644	1307.3914	-293.7955	159.4245	1207.823	-285.6165	255.182	1290.1441	-405.6359
86	0.425	202.1391	1376.9484	-209.1471	328.2179	1301.0806	-198.0356	200.4219	1322.139	-42.4637	237.1768	1317.9887	-9.2713	260.5931	1350.2179	-30.1548	228.1491	1327.2089	-374.0305	269.2808	1318.0258	-404.1972	292.8426	1350.8279	-372.0533	379.9027	1111.0386	-192.9372	148.6824	1193.6759	-220.6856	295.4178	1124.8909	-6.6249	210.1385	991.8654	-25.172	236.3967	998.0271	34.5732	283.3058	839.2366	42.5022	327.5619	776.9512	18.6254	280.0479	770.2681	37.6544	339.5695	677.3461	31.6852	298.034	689.9716	43.1839	321.5134	1115.9606	-388.9848	221.2856	999.8179	-406.5016	260.1796	993.5872	-446.5429	309.6532	841.2875	-440.3799	338.9746	770.3036	-407.5259	302.719	766.3958	-435.0083	353.4535	693.4528	-417.1295	310.1833	691.4163	-440.7215	363.1779	907.2833	-66.8136	175.5182	922.548	-158.2634	372.6448	895.098	-329.3106	179.9954	916.9457	-261.8939	275.6525	966.9144	-41.4333	282.9873	940.7834	-368.1283	159.9237	1299.072	-124.8948	151.0397	1198.033	-117.7565	236.6322	1294.8939	-1.5003	175.7811	1307.3988	-293.78	159.4704	1207.8283	-285.6178	255.2573	1290.1629	-405.6043
